<svg width="157" height="22" viewBox="0 0 157 22" fill="none" xmlns="http://www.w3.org/2000/svg">
<path d="M5.83807 0.181818L11.1115 16.7585H11.3139L16.598 0.181818H21.7116L14.1903 22H8.24574L0.713778 0.181818H5.83807ZM29.2489 22L23.006 0.181818H28.0451L31.6566 15.3416H31.8377L35.8221 0.181818H40.1367L44.1104 15.3736H44.3022L47.9137 0.181818H52.9528L46.7099 22H42.2141L38.0593 7.73508H37.8889L33.7447 22H29.2489ZM64.0057 22H61.2358L69.2472 0.181818H71.9744L79.9858 22H77.2159L70.696 3.63352H70.5256L64.0057 22ZM65.0284 13.4773H76.1932V15.821H65.0284V13.4773ZM90.1172 22H83.3842V0.181818H90.4155C92.532 0.181818 94.343 0.618608 95.8487 1.49219C97.3544 2.35866 98.5085 3.60511 99.3111 5.23153C100.114 6.85085 100.515 8.78977 100.515 11.0483C100.515 13.321 100.11 15.2777 99.3004 16.9183C98.4908 18.5518 97.3118 19.8089 95.7635 20.6896C94.2152 21.5632 92.3331 22 90.1172 22ZM86.0263 19.6562H89.9467C91.7507 19.6562 93.2457 19.3082 94.4318 18.6122C95.6179 17.9162 96.5021 16.9254 97.0845 15.6399C97.6669 14.3544 97.9581 12.8239 97.9581 11.0483C97.9581 9.28693 97.6705 7.7706 97.0952 6.49929C96.5199 5.22088 95.6605 4.24077 94.517 3.55895C93.3736 2.87003 91.9496 2.52557 90.245 2.52557H86.0263V19.6562ZM104.947 0.181818H108.1L115.515 18.2926H115.771L123.185 0.181818H126.339V22H123.867V5.4233H123.654L116.836 22H114.45L107.631 5.4233H107.418V22H104.947V0.181818ZM134.278 0.181818V22H131.636V0.181818H134.278ZM156.877 0.181818V22H154.32L142.431 4.86932H142.218V22H139.576V0.181818H142.132L154.064 17.3551H154.277V0.181818H156.877Z" fill="#28AE86"/>
</svg>
